<svg width="24" height="24" viewBox="0 0 24 24" fill="none" xmlns="http://www.w3.org/2000/svg">
  <path fill-rule="evenodd" clip-rule="evenodd" d="M23.498 6.202a2.93 2.93 0 0 0-2.063-2.072C19.807 3.648 12 3.648 12 3.648s-7.808 0-9.435.482A2.93 2.93 0 0 0 .502 6.202a30.87 30.87 0 0 0-.482 5.234c0 1.837.162 3.669.482 5.232a2.93 2.93 0 0 0 2.063 2.073c1.627.483 9.435.483 9.435.483s7.807 0 9.435-.483a2.93 2.93 0 0 0 2.063-2.072c.321-1.563.482-3.395.482-5.232 0-1.838-.161-3.67-.482-5.234ZM9.75 15.568v-7.132L15.5 12l-5.75 3.568Z" fill="white"/>
</svg>